<?xml version="1.0" encoding="utf-8"?>
<!-- Generator: Adobe Illustrator 24.3.0, SVG Export Plug-In . SVG Version: 6.00 Build 0)  -->
<svg version="1.1"
	 id="svg1494" inkscape:version="1.0 (4035a4fb49, 2020-05-01)" sodipodi:docname="book_2.svg" xmlns:cc="http://creativecommons.org/ns#" xmlns:dc="http://purl.org/dc/elements/1.1/" xmlns:inkscape="http://www.inkscape.org/namespaces/inkscape" xmlns:rdf="http://www.w3.org/1999/02/22-rdf-syntax-ns#" xmlns:sodipodi="http://sodipodi.sourceforge.net/DTD/sodipodi-0.dtd" xmlns:svg="http://www.w3.org/2000/svg"
	 xmlns="http://www.w3.org/2000/svg" xmlns:xlink="http://www.w3.org/1999/xlink" x="0px" y="0px" viewBox="0 0 1920 1080"
	 style="enable-background:new 0 0 1920 1080;" xml:space="preserve">
<style type="text/css">
	.st0{display:none;}
	.st1{display:inline;}
	.st2{fill:#FFFFFF;}
	.st3{fill:#005C1F;stroke:#000000;stroke-miterlimit:10;}
	.st4{fill:#BCF5A9;stroke:#000000;stroke-miterlimit:10;}
	.st5{fill:#FFFFFF;stroke:#000000;stroke-miterlimit:10;}
	.st6{fill:none;stroke:#000000;stroke-miterlimit:10;}
	.st7{fill:#005C1F;stroke:#777777;stroke-miterlimit:10;}
	.st8{fill:#FFFFFF;stroke:#777777;stroke-miterlimit:10;}
	.st9{fill:#777777;stroke:#777777;stroke-miterlimit:10;}
</style>
<sodipodi:namedview  bordercolor="#666666" borderopacity="1" gridtolerance="10" guidetolerance="10" id="namedview1496" inkscape:current-layer="svg1494" inkscape:cx="647.11584" inkscape:cy="493.85732" inkscape:pageopacity="0" inkscape:pageshadow="2" inkscape:window-height="1057" inkscape:window-maximized="1" inkscape:window-width="1920" inkscape:window-x="2552" inkscape:window-y="-8" inkscape:zoom="3.8714096" objecttolerance="10" pagecolor="#ffffff" showgrid="false">
	</sodipodi:namedview>
<g id="Слой_1" class="st0">
	<g id="g1312" class="st1">
		<rect id="rect1308" x="614.5" y="325.5" class="st2" width="285" height="251"/>
		<path id="path1310" d="M899,326v250H615V326H899 M900,325H614v252h286V325L900,325z"/>
	</g>
</g>
<rect id="rect1375" x="626.9" y="418.1" class="st3" width="83.5" height="102"/>
<rect id="rect1377" x="626.9" y="418.4" class="st4" width="77.5" height="102"/>
<rect id="rect1379" x="705.4" y="419.9" class="st5" width="4" height="98"/>
<rect id="rect1381" x="626.9" y="418.4" class="st6" width="77.5" height="102"/>
<rect id="rect1383" x="626.9" y="418.4" class="st6" width="77.5" height="102"/>
<rect id="rect1385" x="626.9" y="418.4" class="st6" width="77.5" height="102"/>
<rect id="rect1387" x="626.9" y="418.4" class="st6" width="77.5" height="102"/>
<rect id="rect1389" x="626.9" y="418.4" class="st6" width="77.5" height="102"/>
<rect id="rect1391" x="645.4" y="480.9" class="st7" width="41" height="1"/>
<rect id="rect1393" x="645.4" y="491.9" class="st7" width="41" height="1"/>
<rect id="rect1395" x="645.4" y="439.9" class="st8" width="41" height="29"/>
<rect x="620.7" y="423.6" class="st9" width="12.4" height="1.3"/>
<rect x="620.7" y="433.6" class="st9" width="12.4" height="1.3"/>
<rect x="620.7" y="443.6" class="st9" width="12.4" height="1.3"/>
<rect x="620.7" y="453.6" class="st9" width="12.4" height="1.3"/>
<rect x="620.7" y="463.6" class="st9" width="12.4" height="1.3"/>
<rect x="620.7" y="473.6" class="st9" width="12.4" height="1.3"/>
<rect x="620.7" y="483.6" class="st9" width="12.4" height="1.3"/>
<rect x="620.7" y="493.6" class="st9" width="12.4" height="1.3"/>
<rect x="620.7" y="503.6" class="st9" width="12.4" height="1.3"/>
<rect x="620.7" y="513.6" class="st9" width="12.4" height="1.3"/>
</svg>
